<svg width="152" height="38" viewBox="0 0 152 38" fill="none" xmlns="http://www.w3.org/2000/svg">
<path d="M8.36364 6.27273L5.13636 15H3.77273L0.545455 6.27273H2L4.40909 13.2273H4.5L6.90909 6.27273H8.36364ZM10.1335 15V6.27273H11.4744V15H10.1335ZM10.8153 4.81818C10.554 4.81818 10.3286 4.72917 10.1392 4.55114C9.9536 4.37311 9.8608 4.15909 9.8608 3.90909C9.8608 3.65909 9.9536 3.44508 10.1392 3.26705C10.3286 3.08902 10.554 3 10.8153 3C11.0767 3 11.3002 3.08902 11.4858 3.26705C11.6752 3.44508 11.7699 3.65909 11.7699 3.90909C11.7699 4.15909 11.6752 4.37311 11.4858 4.55114C11.3002 4.72917 11.0767 4.81818 10.8153 4.81818ZM17.5895 15.1818C16.7486 15.1818 16.0232 14.9962 15.4134 14.625C14.8073 14.25 14.3395 13.7273 14.0099 13.0568C13.6842 12.3826 13.5213 11.5985 13.5213 10.7045C13.5213 9.81061 13.6842 9.02273 14.0099 8.34091C14.3395 7.6553 14.7978 7.12121 15.3849 6.73864C15.9759 6.35227 16.6652 6.15909 17.4531 6.15909C17.9077 6.15909 18.3565 6.23485 18.7997 6.38636C19.2429 6.53788 19.6463 6.78409 20.0099 7.125C20.3736 7.46212 20.6634 7.90909 20.8793 8.46591C21.0952 9.02273 21.2031 9.70833 21.2031 10.5227V11.0909H14.4759V9.93182H19.8395C19.8395 9.43939 19.741 9 19.544 8.61364C19.3509 8.22727 19.0743 7.92235 18.7145 7.69886C18.3584 7.47538 17.938 7.36364 17.4531 7.36364C16.919 7.36364 16.4569 7.49621 16.0668 7.76136C15.6804 8.02273 15.383 8.36364 15.1747 8.78409C14.9664 9.20455 14.8622 9.6553 14.8622 10.1364V10.9091C14.8622 11.5682 14.9759 12.1269 15.2031 12.5852C15.4342 13.0398 15.7543 13.3864 16.1634 13.625C16.5724 13.8598 17.0478 13.9773 17.5895 13.9773C17.9418 13.9773 18.2599 13.928 18.544 13.8295C18.8319 13.7273 19.08 13.5758 19.2884 13.375C19.4967 13.1705 19.6577 12.9167 19.7713 12.6136L21.0668 12.9773C20.9304 13.4167 20.7012 13.803 20.3793 14.1364C20.0573 14.4659 19.6596 14.7235 19.1861 14.9091C18.7126 15.0909 18.1804 15.1818 17.5895 15.1818ZM25.2202 15L22.5611 6.27273H23.9702L25.8565 12.9545H25.9474L27.8111 6.27273H29.2429L31.0838 12.9318H31.1747L33.0611 6.27273H34.4702L31.8111 15H30.4929L28.5838 8.29545H28.4474L26.5384 15H25.2202ZM40.7429 15V6.27273H42.0384V7.63636H42.152C42.3338 7.17045 42.6274 6.80871 43.0327 6.55114C43.438 6.28977 43.9247 6.15909 44.4929 6.15909C45.0687 6.15909 45.5478 6.28977 45.9304 6.55114C46.3168 6.80871 46.6179 7.17045 46.8338 7.63636H46.9247C47.1482 7.18561 47.4834 6.82765 47.9304 6.5625C48.3774 6.29356 48.9134 6.15909 49.5384 6.15909C50.3187 6.15909 50.9569 6.40341 51.4531 6.89205C51.9493 7.37689 52.1974 8.13258 52.1974 9.15909V15H50.8565V9.15909C50.8565 8.51515 50.6804 8.05492 50.3281 7.77841C49.9759 7.50189 49.5611 7.36364 49.0838 7.36364C48.4702 7.36364 47.9948 7.54924 47.6577 7.92045C47.3205 8.28788 47.152 8.75379 47.152 9.31818V15H45.7884V9.02273C45.7884 8.52652 45.6274 8.12689 45.3054 7.82386C44.9834 7.51705 44.5687 7.36364 44.0611 7.36364C43.7126 7.36364 43.3868 7.45644 43.0838 7.64205C42.7846 7.82765 42.5421 8.08523 42.3565 8.41477C42.1747 8.74053 42.0838 9.11742 42.0838 9.54545V15H40.7429ZM58.1946 15.1818C57.4067 15.1818 56.7154 14.9943 56.1207 14.6193C55.5298 14.2443 55.0677 13.7197 54.7344 13.0455C54.4048 12.3712 54.2401 11.5833 54.2401 10.6818C54.2401 9.77273 54.4048 8.97917 54.7344 8.30114C55.0677 7.62311 55.5298 7.09659 56.1207 6.72159C56.7154 6.34659 57.4067 6.15909 58.1946 6.15909C58.9825 6.15909 59.6719 6.34659 60.2628 6.72159C60.8575 7.09659 61.3196 7.62311 61.6491 8.30114C61.9825 8.97917 62.1491 9.77273 62.1491 10.6818C62.1491 11.5833 61.9825 12.3712 61.6491 13.0455C61.3196 13.7197 60.8575 14.2443 60.2628 14.6193C59.6719 14.9943 58.9825 15.1818 58.1946 15.1818ZM58.1946 13.9773C58.7931 13.9773 59.2855 13.8239 59.6719 13.517C60.0582 13.2102 60.3442 12.8068 60.5298 12.3068C60.7154 11.8068 60.8082 11.2652 60.8082 10.6818C60.8082 10.0985 60.7154 9.55492 60.5298 9.05114C60.3442 8.54735 60.0582 8.14015 59.6719 7.82955C59.2855 7.51894 58.7931 7.36364 58.1946 7.36364C57.5961 7.36364 57.1037 7.51894 56.7173 7.82955C56.331 8.14015 56.045 8.54735 55.8594 9.05114C55.6738 9.55492 55.581 10.0985 55.581 10.6818C55.581 11.2652 55.6738 11.8068 55.8594 12.3068C56.045 12.8068 56.331 13.2102 56.7173 13.517C57.1037 13.8239 57.5961 13.9773 58.1946 13.9773ZM64.196 15V6.27273H65.4915V7.59091H65.5824C65.7415 7.15909 66.0294 6.80871 66.446 6.53977C66.8627 6.27083 67.3324 6.13636 67.8551 6.13636C67.9536 6.13636 68.0767 6.13826 68.2244 6.14205C68.3722 6.14583 68.4839 6.15152 68.5597 6.15909V7.52273C68.5142 7.51136 68.41 7.49432 68.2472 7.47159C68.0881 7.44508 67.9195 7.43182 67.7415 7.43182C67.3172 7.43182 66.9384 7.52083 66.6051 7.69886C66.2756 7.87311 66.0142 8.11553 65.821 8.42614C65.6316 8.73295 65.5369 9.08333 65.5369 9.47727V15H64.196ZM73.5426 15.1818C72.7017 15.1818 71.9763 14.9962 71.3665 14.625C70.7604 14.25 70.2926 13.7273 69.9631 13.0568C69.6373 12.3826 69.4744 11.5985 69.4744 10.7045C69.4744 9.81061 69.6373 9.02273 69.9631 8.34091C70.2926 7.6553 70.7509 7.12121 71.3381 6.73864C71.929 6.35227 72.6184 6.15909 73.4062 6.15909C73.8608 6.15909 74.3097 6.23485 74.7528 6.38636C75.196 6.53788 75.5994 6.78409 75.9631 7.125C76.3267 7.46212 76.6165 7.90909 76.8324 8.46591C77.0483 9.02273 77.1562 9.70833 77.1562 10.5227V11.0909H70.429V9.93182H75.7926C75.7926 9.43939 75.6941 9 75.4972 8.61364C75.304 8.22727 75.0275 7.92235 74.6676 7.69886C74.3116 7.47538 73.8911 7.36364 73.4062 7.36364C72.8722 7.36364 72.41 7.49621 72.0199 7.76136C71.6335 8.02273 71.3362 8.36364 71.1278 8.78409C70.9195 9.20455 70.8153 9.6553 70.8153 10.1364V10.9091C70.8153 11.5682 70.929 12.1269 71.1562 12.5852C71.3873 13.0398 71.7074 13.3864 72.1165 13.625C72.5256 13.8598 73.0009 13.9773 73.5426 13.9773C73.8949 13.9773 74.2131 13.928 74.4972 13.8295C74.785 13.7273 75.0331 13.5758 75.2415 13.375C75.4498 13.1705 75.6108 12.9167 75.7244 12.6136L77.0199 12.9773C76.8835 13.4167 76.6544 13.803 76.3324 14.1364C76.0104 14.4659 75.6127 14.7235 75.1392 14.9091C74.6657 15.0909 74.1335 15.1818 73.5426 15.1818Z" fill="black"/>
<line y1="36.5" x2="150" y2="36.5" stroke="black"/>
<line x1="136.354" y1="22.6464" x2="150.496" y2="36.7886" stroke="black"/>
</svg>
